<?xml version="1.0" encoding="utf-8"?>
<!-- Generator: Adobe Illustrator 27.6.1, SVG Export Plug-In . SVG Version: 6.00 Build 0)  -->
<svg version="1.1" id="Layer_1" xmlns="http://www.w3.org/2000/svg" xmlns:xlink="http://www.w3.org/1999/xlink" x="0px" y="0px"
	 viewBox="0 0 5669.29 5669.29" style="enable-background:new 0 0 5669.29 5669.29;" xml:space="preserve">
<style type="text/css">
	.st0{fill:#1F2555;}
</style>
<path class="st0" d="M4431.54,2472.68l-662.48-674.28l-380.81,5.33l526.47,536h-767.87c0,0-345.08-330.79-432.77-424.15
	c-87.8-93.25-192.51-105.5-192.51-105.5l-851.92-6.35l1.7,4.31l-6.92-4.31l-665.77,677.35l668.95,668.95h364.71l-519.44-534.41
	l3.51-4.08l666.81,6.73c69.65,0.7,136.26,28.66,185.54,77.89l327.71,327.3c37.66,37.61,82.04,67.83,130.83,89.09l0,0
	c53.65,23.37,111.55,35.44,170.07,35.44h767.96l-1.02-3.06l6.92,3.06L4431.54,2472.68z M3652.78,2884.01l-742.57-7.26l-419.5-422.22
	c-82.92-97.79-225.52-109.58-225.52-109.58h-742.46l-7.26-8.96l255.69-271.12l0.45,1.14l728.62,0.34l431.86,437.08
	c85.08,97.9,215.87,105.38,215.87,105.38l788.51,1.59L3652.78,2884.01z"/>
<path class="st0" d="M894,3494.18h62.75l108.48-179.73h108.48l-96.78,179.73h69.13l102.57-182.63c12.64-22.5-3.62-50.28-29.43-50.28
	h-166.74c-11.87,0-22.87,6.24-28.96,16.42L894,3494.18z"/>
<path class="st0" d="M4451.51,3261.2l-190.5-4.16l-99.97,180.79l-213.76-2.13l26.59-34.7h59.56l58.49-47.86l-98.11-0.4l24.33-42.27
	l153.54-1.6l61.68-51.85h-252.05l-104.75,179.73l-212.56,0.33l28.58-37.55h62.21l61.15-46.79l-101.1-0.8l26.65-42.01h152.34
	l56.1-52.91h-244.06l-143.58,238.22h757.01c27.19,0,52.42-14.19,66.53-37.44l91.17-150.13
	C4489.24,3287.55,4475.07,3261.72,4451.51,3261.2z M4392.54,3327.28l-48.1,98.44c-3.22,6.6-9.93,10.78-17.27,10.78h-94.88
	l66.2-125.62l85.8,2.73C4391.19,3313.82,4395.57,3321.08,4392.54,3327.28z"/>
<path class="st0" d="M2055.47,3260.12l-190.5-4.16L1765,3436.75l-213.76-2.13l26.59-34.7h59.56l58.49-47.86l-98.11-0.4l24.33-42.27
	l153.54-1.6l61.68-51.85h-252.05l-104.75,179.73l-212.56,0.33l28.58-37.55h62.21l61.15-46.79l-101.1-0.8l26.65-42.01h152.34
	l56.1-52.91h-244.06l-143.58,238.22h757.01c27.19,0,52.42-14.19,66.53-37.44l91.17-150.13
	C2093.2,3286.47,2079.03,3260.64,2055.47,3260.12z M1996.5,3326.2l-48.1,98.44c-3.22,6.6-9.93,10.78-17.27,10.78h-94.88l66.2-125.62
	l85.8,2.73C1995.15,3312.74,1999.53,3320,1996.5,3326.2z"/>
<polygon class="st0" points="2085.46,3494.18 2220.7,3255.96 2495.08,3255.96 2427.02,3309.8 2263.24,3309.8 2245.16,3349.02 
	2350.47,3351.23 2281.85,3402.74 2218.58,3402.19 2165.93,3494.18 "/>
<path class="st0" d="M2678.12,3254.43h-137.28c-11.52,0-22.02,6.19-26.98,15.91l-112.21,184.57c-9.32,18.26,4.61,39.43,26.27,39.92
	l135.83,3.03c11.78,0.26,22.63-5.97,27.7-15.91l113.66-187.61C2714.55,3275.82,2700.09,3254.43,2678.12,3254.43z M2625.16,3339.54
	l-60.79,89.55c-2.21,4.64-6.94,7.55-12.08,7.43l-59.23-1.42c-9.44-0.23-15.52-10.11-11.45-18.64l60.16-88.13
	c2.16-4.54,6.74-7.43,11.76-7.43h59.86C2622.97,3320.91,2629.27,3330.9,2625.16,3339.54z"/>
<path class="st0" d="M2994.34,3272.08c-8.03-10.18-20.28-16.12-33.24-16.12h-179.94l-136.13,238.22h65.94l35.63-57.65h105.82
	c10.63,22.11-34.56,57.65-34.56,57.65h74.98c35.1-24.99,27.12-95.18,27.12-95.18c35.88-1.65,66.31-49.67,78.17-71.14
	c3.48-6.3,5.31-13.34,5.31-20.54v-9.03C3003.43,3288.78,3000.23,3279.55,2994.34,3272.08z M2911.47,3319.54l-27.98,52.66
	c-1.29,2.43-3.82,3.95-6.57,3.95h-83.41c-5.61,0-9.2-5.96-6.59-10.92l27.78-52.66c1.29-2.44,3.82-3.97,6.58-3.97h83.62
	C2910.52,3308.6,2914.11,3314.58,2911.47,3319.54z"/>
<path class="st0" d="M3393.73,3255.96h-212.17l-84.09,86.66c-1.72,1.77-3.17,3.78-4.31,5.97l-4.06,7.77
	c-4.31,8.26-3.77,18.21,1.39,25.96l0,0c4.73,7.1,12.7,11.36,21.23,11.36h95.21c9.36,0,17.42,6.61,19.25,15.78l0,0
	c1.34,6.71-0.91,13.64-5.94,18.28l-0.09,0.08c-3.63,3.35-8.38,5.21-13.32,5.21h-95.48l-99.44,61.15l204.08,1.02
	c8.48,0.04,16.86-1.8,24.53-5.4l0,0c8.75-4.1,16.31-10.35,21.99-18.17l30.82-55.35c1.94-2.68,3.47-5.63,4.54-8.76l4.37-12.88
	c2.33-6.86,2.33-14.3,0.01-21.17h0c-4.53-13.38-17.09-22.38-31.21-22.38l-104.91-3.67l36.69-37.22l140.38-1.6L3393.73,3255.96z"/>
<path class="st0" d="M3634.69,3271.71c-5.06-9.06-14.62-14.67-24.99-14.67h-180.21l-144.77,238.22h69.39l30.31-59.04l137.99-1.6
	c57.43-5.18,102.09-108.08,102.09-108.08l11.87-30.51C3639.47,3288.08,3638.85,3279.16,3634.69,3271.71z M3551.15,3336.77
	l-21.11,37.25c-2,3.54-5.75,5.72-9.82,5.72h-80.49c-8.28,0-13.74-8.62-10.2-16.11l17.63-37.25c1.87-3.94,5.84-6.46,10.2-6.46h83.96
	C3549.98,3319.92,3555.41,3329.24,3551.15,3336.77z"/>
</svg>
